Coordinates
version=1
nRows=29
nColumns=24
inDegrees=yes

Units are S.I. units (second, meters, Newtons, ...)
Angles are in degrees.

endheader
time	pelvis_tilt	pelvis_list	pelvis_rotation	pelvis_tx	pelvis_ty	pelvis_tz	hip_flexion_r	hip_adduction_r	hip_rotation_r	knee_angle_r	ankle_angle_r	subtalar_angle_r	mtp_angle_r	hip_flexion_l	hip_adduction_l	hip_rotation_l	knee_angle_l	ankle_angle_l	subtalar_angle_l	mtp_angle_l	lumbar_extension	lumbar_bending	lumbar_rotation
      1.38750000	      4.36434046	      3.09339099	     -0.12824690	      0.16874327	      1.03749831	      0.28955948	     10.93991088	     -7.20425414	    -11.31850860	    -68.57812299	    -15.14467280	     -9.84836734	     -0.66059367	      3.08053585	      8.44412534	      4.81619960	    -10.47144948	      2.29827795	    -13.46157842	      0.21531586	     -6.70714133	     -4.81485821	      3.27812182
      1.39166667	      4.41287883	      2.89829163	     -0.17216052	      0.17357171	      1.03836837	      0.28935633	     11.51239599	     -6.98043889	    -11.18633653	    -68.52734445	    -13.89172026	     -9.57668416	     -0.60432054	      2.62055412	      8.24197975	      4.84368019	    -10.26198707	      2.43600673	    -13.43678229	      0.19423270	     -6.81282296	     -4.56197966	      3.23397101
      1.39583333	      4.44575977	      2.70586416	     -0.20391844	      0.17837016	      1.03917194	      0.28912697	     12.09131134	     -6.76087322	    -11.07122862	    -68.42759809	    -12.67688135	     -9.29704202	     -0.54849544	      2.18474622	      8.04471894	      4.87669248	    -10.06439324	      2.56478976	    -13.42605484	      0.17022294	     -6.92158026	     -4.30495795	      3.18555683
      1.40000000	      4.48628694	      2.49407013	     -0.21685929	      0.18315196	      1.03999027	      0.28888151	     12.63813229	     -6.51596058	    -10.98102421	    -68.25162441	    -11.53484521	     -9.05115622	     -0.49906702	      1.74503419	      7.82671302	      4.91751360	     -9.87739309	      2.68345796	    -13.42174011	      0.14807706	     -7.06085968	     -4.01513269	      3.13838508
      1.40416667	      4.53047049	      2.30540218	     -0.23105636	      0.18794489	      1.04077241	      0.28863456	     13.16892830	     -6.29844918	    -10.89423890	    -68.02701074	    -10.43491302	     -8.79998839	     -0.45231882	      1.28830702	      7.63392483	      4.96511137	     -9.66167957	      2.80425912	    -13.41535043	      0.12329052	     -7.18122980	     -3.76303994	      3.07693230
      1.40833333	      4.57195174	      2.12978838	     -0.23625554	      0.19276122	      1.04151341	      0.28837156	     13.68552707	     -6.09940593	    -10.82343117	    -67.75193309	     -9.38819055	     -8.53432292	     -0.40715354	      0.82354415	      7.45551482	      5.02436401	     -9.42470376	      2.92610887	    -13.41145063	      0.08837526	     -7.27526023	     -3.52825376	      2.99385051
      1.41250000	      4.63005974	      1.93195506	     -0.21958400	      0.19751605	      1.04226969	      0.28808706	     14.16346393	     -5.87466811	    -10.78184986	    -67.40271532	     -8.43433390	     -8.33581700	     -0.37076142	      0.35673851	      7.25186556	      5.08323653	     -9.21526056	      3.03384946	    -13.41259394	      0.05782149	     -7.42791942	     -3.25685352	      2.92622177
      1.41666667	      4.69215377	      1.75993487	     -0.20093606	      0.20232073	      1.04299128	      0.28778725	     14.61899884	     -5.68365029	    -10.74922218	    -67.00564432	     -7.52842513	     -8.12650678	     -0.33782375	     -0.13656341	      7.07733171	      5.16050049	     -8.96361681	      3.14458913	    -13.40953166	      0.01518975	     -7.55592562	     -3.02512110	      2.82151758
      1.42083333	      4.74624066	      1.58829657	     -0.16832937	      0.20708995	      1.04366225	      0.28747400	     15.06847139	     -5.49464357	    -10.73465958	    -66.55267427	     -6.69904327	     -7.95823698	     -0.31190899	     -0.61124453	      6.90162926	      5.23783997	     -8.72771259	      3.24966560	    -13.41056505	     -0.02990095	     -7.68938351	     -2.78648572	      2.72172299
      1.42500000	      4.78630250	      1.40837494	     -0.11587020	      0.21184391	      1.04429730	      0.28714915	     15.51083301	     -5.29454892	    -10.74159119	    -66.03241628	     -5.94974327	     -7.85255552	     -0.29239162	     -1.06119848	      6.71419794	      5.31428994	     -8.50873798	      3.35081184	    -13.40970306	     -0.06508045	     -7.81571047	     -2.53954188	      2.63296681
      1.42916667	      4.88234669	      1.25400462	     -0.06530327	      0.21661546	      1.04496398	      0.28680801	     15.87492838	     -5.13263849	    -10.75863299	    -65.46559350	     -5.23630324	     -7.71295741	     -0.27782379	     -1.59554538	      6.55431626	      5.40845504	     -8.24004637	      3.45433754	    -13.39894392	     -0.11223577	     -7.98726910	     -2.31752843	      2.50362013
      1.43333333	      4.93277174	      1.10233101	      0.00311064	      0.22138207	      1.04552611	      0.28644652	     16.27049077	     -4.97298511	    -10.79107961	    -64.84423605	     -4.59071533	     -7.63820902	     -0.26974820	     -2.06858724	      6.39588244	      5.50401836	     -7.99394921	      3.55297490	    -13.39519687	     -0.16427401	     -8.11238793	     -2.10133306	      2.36885631
      1.43750000	      5.00067623	      0.94999338	      0.08483661	      0.22613234	      1.04608736	      0.28607748	     16.62416090	     -4.81257774	    -10.83774737	    -64.15879034	     -4.00283609	     -7.58681887	     -0.26575865	     -2.55839785	      6.23317030	      5.59862958	     -7.74827165	      3.65309877	    -13.38052673	     -0.21478402	     -8.26137957	     -1.88683196	      2.23757183
      1.44166667	      5.04145191	      0.79404329	      0.17755743	      0.23089219	      1.04657464	      0.28569733	     16.98650418	     -4.64853357	    -10.90019527	    -63.41511501	     -3.46622680	     -7.59261938	     -0.26249152	     -3.01032378	      6.06390415	      5.68743834	     -7.52239822	      3.75488902	    -13.35805698	     -0.25192707	     -8.37237069	     -1.66619058	      2.12670947
      1.44583333	      5.12811602	      0.66074035	      0.27613122	      0.23564976	      1.04708064	      0.28530590	     17.27883022	     -4.51590951	    -10.97193843	    -62.62176519	     -2.96711616	     -7.56713586	     -0.26501993	     -3.52831827	      5.91605466	      5.79498191	     -7.25679447	      3.86206227	    -13.32713354	     -0.30527142	     -8.53988850	     -1.46998933	      1.95110957
      1.45000000	      5.17743882	      0.52778507	      0.38605747	      0.24040260	      1.04750527	      0.28491289	     17.59193566	     -4.37874831	    -11.04904876	    -61.77096273	     -2.50803751	     -7.61028473	     -0.26699758	     -3.99082697	      5.76560981	      5.89303417	     -7.02251767	      3.96270244	    -13.29298028	     -0.34622199	     -8.65839466	     -1.27522326	      1.82062169
      1.45416667	      5.25952298	      0.41493758	      0.49769057	      0.24517079	      1.04792430	      0.28451129	     17.84918139	     -4.26727161	    -11.13147176	    -60.87075534	     -2.09908372	     -7.65341779	     -0.27814779	     -4.50701256	      5.63490603	      6.01373504	     -6.74982392	      4.06595101	    -13.25298505	     -0.41617960	     -8.81638431	     -1.10286963	      1.60464020
      1.45833333	      5.28540497	      0.29212707	      0.62758492	      0.24992415	      1.04824377	      0.28410051	     18.14345102	     -4.14232448	    -11.22730900	    -59.90763606	     -1.70759303	     -7.72675640	     -0.28216743	     -4.93621045	      5.48924997	      6.11346057	     -6.52801594	      4.17523738	    -13.20925081	     -0.45646200	     -8.90436840	     -0.91505382	      1.48481949
      1.46250000	      5.37770624	      0.18320582	      0.75366070	      0.25470383	      1.04863050	      0.28369974	     18.33829534	     -4.03030817	    -11.32330505	    -58.87943117	     -1.37979663	     -7.81527461	     -0.29344356	     -5.46461414	      5.35409914	      6.23164194	     -6.25122510	      4.28731723	    -13.14894712	     -0.51855737	     -9.05983456	     -0.74590049	      1.27721914
      1.46666667	      5.42871608	      0.08037568	      0.88948931	      0.25947046	      1.04890535	      0.28329855	     18.55993509	     -3.92344677	    -11.42354860	    -57.80392917	     -1.05833471	     -7.92591108	     -0.30457953	     -5.93326197	      5.22272961	      6.34697079	     -6.00309475	      4.39711752	    -13.09047228	     -0.58184057	     -9.17508111	     -0.58769866	      1.09382448
      1.47083333	      5.47219372	     -0.00678988	      1.02898115	      0.26424378	      1.04913007	      0.28289890	     18.76893083	     -3.83148242	    -11.52240013	    -56.67798094	     -0.76764636	     -8.04691043	     -0.31671304	     -6.39245569	      5.10578938	      6.45940068	     -5.75795703	      4.50830125	    -13.02928591	     -0.64854534	     -9.28121216	     -0.44502793	      0.90715652
      1.47500000	      5.51368607	     -0.09425406	      1.17061744	      0.26901846	      1.04931628	      0.28251346	     18.95561426	     -3.73209682	    -11.61863868	    -55.49093272	     -0.49969732	     -8.19442069	     -0.33145269	     -6.85117423	      4.98424753	      6.57736979	     -5.50797918	      4.61601848	    -12.95733038	     -0.72437560	     -9.39121194	     -0.30616055	      0.71279495
      1.47916667	      5.51826539	     -0.17547834	      1.32501184	      0.27380315	      1.04941234	      0.28210954	     19.15745743	     -3.64353095	    -11.72735279	    -54.25065115	     -0.23701270	     -8.31842263	     -0.34052882	     -7.25633844	      4.86810852	      6.68968276	     -5.28847672	      4.73496131	    -12.89145832	     -0.77089539	     -9.43973589	     -0.16778729	      0.57792146
      1.48333333	      5.54452035	     -0.23837486	      1.46651886	      0.27861614	      1.04949158	      0.28173500	     19.31474765	     -3.56817203	    -11.82506936	    -52.95768507	     -0.04881323	     -8.48557716	     -0.35732734	     -7.70618904	      4.76840097	      6.79866354	     -5.02550373	      4.85748219	    -12.81374880	     -0.83777177	     -9.50852305	     -0.05919060	      0.36075372
      1.48750000	      5.55105725	     -0.31553408	      1.62473176	      0.28341570	      1.04952990	      0.28136032	     19.46148366	     -3.47115235	    -11.92883463	    -51.59488916	      0.16220870	     -8.63586343	     -0.37044758	     -8.11595295	      4.64933761	      6.91412589	     -4.80136618	      4.97031854	    -12.73476750	     -0.88663448	     -9.56853499	      0.07350990	      0.21261738
      1.49166667	      5.57008910	     -0.36393310	      1.76573101	      0.28824924	      1.04953460	      0.28101492	     19.57576366	     -3.40099258	    -12.02271308	    -50.18614594	      0.28592033	     -8.82707742	     -0.39463999	     -8.56127751	      4.55962287	      7.01873092	     -4.53300405	      5.09136262	    -12.65404439	     -0.96097106	     -9.62836464	      0.15455159	     -0.01580094
      1.49583333	      5.57367712	     -0.41056191	      1.91821179	      0.29308323	      1.04948766	      0.28067474	     19.67845915	     -3.32996848	    -12.12345881	    -48.71870224	      0.41377212	     -8.99533720	     -0.42040455	     -8.97834191	      4.46827274	      7.12851358	     -4.29017960	      5.21077275	    -12.57028296	     -1.03461605	     -9.67228166	      0.24534798	     -0.20293426
      1.50000000	      5.51794533	     -0.44934276	      2.07227525	      0.29792764	      1.04930689	      0.28033777	     19.82517505	     -3.26412194	    -12.21436026	    -47.21005832	      0.56769955	     -9.12492634	     -0.43871683	     -9.31984791	      4.38687019	      7.24428636	     -4.07294000	      5.31843062	    -12.48376730	     -1.07843589	     -9.65311829	      0.33097762	     -0.32640773
      1.50416667	      5.53867103	     -0.48558050	      2.21474068	      0.30280657	      1.04921579	      0.28003230	     19.85336277	     -3.19083822	    -12.30956642	    -45.61866092	      0.56616913	     -9.34496290	     -0.47899033	     -9.76654766	      4.30215879	      7.33027819	     -3.81192551	      5.45048923	    -12.39715441	     -1.16136850	     -9.70463520	      0.39264055	     -0.56863770
